<svg xmlns="http://www.w3.org/2000/svg" width="800" height="500" viewBox="0 0 800 500">
  <rect width="800" height="500" fill="#F8FAFC"/>
  <rect x="0" y="0" width="800" height="72" fill="#FFFFFF"/>
  <rect x="0" y="71" width="800" height="1" fill="#E2E8F0"/>
  <rect x="24" y="24" width="120" height="24" rx="4" fill="#F1F5F9"/>
  <rect x="300" y="28" width="200" height="16" rx="4" fill="#E2E8F0"/>
  <rect x="650" y="24" width="120" height="24" rx="4" fill="#16A34A" opacity="0.8"/>
  <rect x="0" y="72" width="800" height="240" fill="#DCFCE7" opacity="0.5"/>
  <rect x="180" y="120" width="440" height="36" rx="6" fill="#15803D" opacity="0.9"/>
  <rect x="220" y="170" width="360" height="18" rx="4" fill="#166534" opacity="0.5"/>
  <rect x="250" y="198" width="300" height="18" rx="4" fill="#166534" opacity="0.4"/>
  <rect x="300" y="238" width="100" height="36" rx="18" fill="#16A34A"/>
  <rect x="416" y="238" width="100" height="36" rx="18" fill="#FFFFFF" opacity="0.7"/>
  <rect x="40" y="340" width="340" height="140" rx="8" fill="#FFFFFF"/>
  <rect x="40" y="340" width="340" height="140" rx="8" fill="none" stroke="#E2E8F0" stroke-width="1"/>
  <rect x="60" y="360" width="300" height="80" rx="4" fill="#F0FDF4"/>
  <rect x="420" y="340" width="340" height="140" rx="8" fill="#FFFFFF"/>
  <rect x="420" y="340" width="340" height="140" rx="8" fill="none" stroke="#E2E8F0" stroke-width="1"/>
  <rect x="440" y="360" width="300" height="80" rx="4" fill="#F0FDF4"/>
  <text x="400" y="415" font-family="sans-serif" font-size="13" fill="#64748B" text-anchor="middle">Ganti dengan screenshot berkah-raya-farm.vercel.app</text>
</svg>
