<svg xmlns="http://www.w3.org/2000/svg" width="800" height="500" viewBox="0 0 800 500">
  <rect width="800" height="500" fill="#0F172A"/>
  <rect x="0" y="0" width="800" height="72" fill="#1E293B"/>
  <rect x="24" y="24" width="120" height="24" rx="4" fill="#334155"/>
  <rect x="300" y="28" width="200" height="16" rx="4" fill="#1E3A5F"/>
  <rect x="650" y="24" width="120" height="24" rx="4" fill="#0EA5E9" opacity="0.8"/>
  <rect x="0" y="72" width="800" height="260" fill="#0C4A6E" opacity="0.6"/>
  <rect x="200" y="130" width="400" height="36" rx="6" fill="#F8FAFC" opacity="0.9"/>
  <rect x="240" y="180" width="320" height="20" rx="4" fill="#F8FAFC" opacity="0.5"/>
  <rect x="270" y="210" width="260" height="20" rx="4" fill="#F8FAFC" opacity="0.4"/>
  <rect x="290" y="254" width="100" height="36" rx="18" fill="#0EA5E9"/>
  <rect x="408" y="254" width="120" height="36" rx="18" fill="#1E293B" opacity="0.8"/>
  <rect x="0" y="332" width="800" height="168" fill="#F1F5F9"/>
  <rect x="40" y="360" width="220" height="100" rx="8" fill="#DBEAFE"/>
  <rect x="290" y="360" width="220" height="100" rx="8" fill="#DBEAFE"/>
  <rect x="540" y="360" width="220" height="100" rx="8" fill="#DBEAFE"/>
  <text x="400" y="415" font-family="sans-serif" font-size="13" fill="#64748B" text-anchor="middle">Ganti dengan screenshot garudapariwisata.com</text>
</svg>
